<svg xmlns="http://www.w3.org/2000/svg" width="111" height="51" viewBox="0 0 111 51">
    <g fill="none" fill-rule="evenodd">
        <path fill="#FFF" d="M.175 50.471L2.291 50.471 2.291 40.001.175 40.001zM11.32 39.971L11.32 47.231 6.58 39.971 4.465 39.971 4.465 50.471 6.58 50.471 6.58 43.211 11.32 50.471 13.435 50.471 13.435 39.971z"/>
        <g>
            <path fill="#FFF" d="M17.725 48.555h1.44c1.1 0 1.954-.325 2.565-.976.609-.65.915-1.53.915-2.639 0-1.11-.306-1.99-.915-2.64-.61-.65-1.465-.976-2.565-.976h-1.44v7.231zm1.44-8.865c1.68 0 3.037.48 4.072 1.44 1.034.96 1.553 2.23 1.553 3.81s-.519 2.845-1.553 3.794c-1.035.951-2.392 1.426-4.072 1.426H15.61V39.69h3.555zM26.38 50.16L28.495 50.16 28.495 39.69 26.38 39.69zM33.34 46.575h2.984l-1.5-4.365-1.485 4.365zm4.2 3.585l-.676-1.965h-4.08l-.675 1.965h-2.234l3.704-10.5h2.505l3.69 10.5H37.54z" transform="translate(0 .311)"/>
            <path fill="#FFF" fill-opacity=".6" d="M52.209 39.735L53.918 39.735 53.918 50.16 52.209 50.16 52.209 45.555 47.304 45.555 47.304 50.16 45.594 50.16 45.594 39.735 47.304 39.735 47.304 44.235 52.209 44.235zM57.069 48.75c-1.03-1-1.545-2.273-1.545-3.818 0-1.544.515-2.82 1.545-3.825 1.03-1.005 2.29-1.507 3.78-1.507 1.11 0 2.098.272 2.962.817.866.546 1.493 1.317 1.883 2.317h-2.055c-.56-1.049-1.49-1.574-2.79-1.574-1.05 0-1.907.345-2.573 1.035-.664.69-.997 1.602-.997 2.737s.333 2.048.997 2.738c.666.69 1.524 1.034 2.573 1.034 1.3 0 2.23-.524 2.79-1.574h2.055c-.39 1-1.017 1.77-1.883 2.31-.864.54-1.851.81-2.962.81-1.49 0-2.75-.5-3.78-1.5M67.613 50.159L69.323 50.159 69.323 39.734 67.613 39.734zM75.563 50.01v-1.245c.25-.22.615-.535 1.096-.945.48-.41.847-.728 1.102-.952.255-.226.572-.515.952-.87s.676-.66.886-.915c.21-.256.424-.543.644-.863.41-.58.616-1.16.616-1.74 0-1.24-.591-1.86-1.77-1.86-.59 0-1.048.187-1.373.562-.324.375-.497.878-.517 1.508h-1.65c.03-1.14.372-2.012 1.027-2.618.655-.605 1.507-.907 2.558-.907 1.05 0 1.882.295 2.498.885.614.59.921 1.37.921 2.34 0 .73-.194 1.425-.585 2.085-.209.34-.41.643-.6.907-.19.266-.454.568-.794.908-.34.34-.61.605-.81.796-.2.19-.493.454-.877.794-.386.34-.648.575-.788.706h4.755v1.424h-7.29zM88.178 40.785c-.48 0-.875.103-1.185.307-.31.206-.535.508-.675.908-.24.69-.36 1.58-.36 2.67 0 1.1.12 1.995.36 2.685.28.81.9 1.215 1.86 1.215.96 0 1.58-.405 1.86-1.215.24-.69.36-1.586.36-2.685 0-1.09-.12-1.98-.36-2.67-.28-.81-.9-1.215-1.86-1.215m-1.89-1.148c.52-.274 1.15-.412 1.89-.412s1.37.138 1.89.412c.52.276.923.668 1.208 1.178.285.51.49 1.078.614 1.702.125.626.188 1.343.188 2.153s-.063 1.528-.188 2.152c-.124.626-.329 1.196-.614 1.71-.285.516-.688.91-1.208 1.185-.52.276-1.15.413-1.89.413s-1.37-.137-1.89-.413c-.52-.275-.922-.67-1.208-1.185-.285-.514-.49-1.084-.614-1.71-.125-.624-.188-1.342-.188-2.152s.063-1.527.188-2.153c.124-.624.33-1.192.614-1.702.286-.51.688-.902 1.208-1.178M93.683 50.01v-1.245c.25-.22.615-.535 1.095-.945.48-.41.848-.728 1.103-.952.254-.226.571-.515.952-.87.38-.355.675-.66.885-.915.21-.256.425-.543.645-.863.41-.58.615-1.16.615-1.74 0-1.24-.59-1.86-1.77-1.86-.59 0-1.047.187-1.373.562-.324.375-.497.878-.517 1.508h-1.65c.03-1.14.372-2.012 1.028-2.618.655-.605 1.507-.907 2.557-.907s1.882.295 2.498.885c.614.59.922 1.37.922 2.34 0 .73-.195 1.425-.585 2.085-.21.34-.41.643-.6.907-.19.266-.455.568-.795.908-.34.34-.61.605-.81.796-.2.19-.493.454-.877.794-.386.34-.648.575-.788.706h4.755v1.424h-7.29zM106.299 40.785c-.481 0-.876.103-1.185.307-.311.206-.536.508-.675.908-.241.69-.36 1.58-.36 2.67 0 1.1.119 1.995.36 2.685.28.81.9 1.215 1.86 1.215.959 0 1.579-.405 1.859-1.215.24-.69.36-1.586.36-2.685 0-1.09-.12-1.98-.36-2.67-.28-.81-.9-1.215-1.86-1.215m-1.89-1.148c.52-.274 1.15-.412 1.89-.412s1.37.138 1.89.412c.52.276.923.668 1.208 1.178.285.51.49 1.078.614 1.702.126.626.188 1.343.188 2.153s-.062 1.528-.188 2.152c-.124.626-.329 1.196-.614 1.71-.285.516-.688.91-1.207 1.185-.52.276-1.15.413-1.89.413s-1.37-.137-1.891-.413c-.52-.275-.922-.67-1.208-1.185-.285-.514-.49-1.084-.614-1.71-.125-.624-.187-1.342-.187-2.152s.062-1.527.187-2.153c.125-.624.33-1.192.614-1.702.286-.51.688-.902 1.208-1.178" transform="translate(0 .311)"/>
            <path fill="#FFF" d="M4.769 10.706L27.468 10.706 27.468 9.519 4.769 9.519zM4.769 23.626L27.468 23.626 27.468 22.439 4.769 22.439zM4.769 19.319L27.468 19.319 27.468 18.133 4.769 18.133zM4.769 15.014L27.468 15.014 27.468 13.826 4.769 13.826z" transform="translate(0 .311)"/>
            <path fill="#FC346C" d="M0 32.706L11.08 32.706 11.08 0.463 0 0.439z" transform="translate(0 .311)"/>
            <path fill="#1CE4CC" d="M21.157 32.696L32.24 32.696 32.24 0.45 21.157 0.45z" transform="translate(0 .311)"/>
            <path fill="#1089FF" d="M54.393 32.77c-8.905 0-16.125-7.22-16.125-16.125 0-8.905 7.22-16.124 16.125-16.124v32.248z" transform="translate(0 .311)"/>
            <path fill="#1089FF" d="M53.969 32.769L57.529 32.769 57.529 0.52 53.969 0.52z" transform="translate(0 .311)"/>
            <path fill="#FFF" d="M60.618 32.769L61.805 32.769 61.805.538 60.618.538zM69.232 32.77L70.418 32.77 70.418.539 69.232.539zM64.924 32.77L66.112 32.77 66.112.539 64.924.539zM98.983 32.769L100.17 32.769 100.17.538 98.983.538zM107.596 32.77L108.782 32.77 108.782.539 107.596.539zM103.289 32.77L104.477 32.77 104.477.539 103.289.539zM94.676 32.77L95.864 32.77 95.864.539 94.676.539z" transform="translate(0 .311)"/>
            <path fill="#FCDC04" d="M76.566 32.767L91.557 32.767 91.557 0.489 76.566 0.489z" transform="translate(0 .311)"/>
        </g>
    </g>
</svg>